<svg xmlns="http://www.w3.org/2000/svg" xmlns:xlink="http://www.w3.org/1999/xlink" width="500" zoomAndPan="magnify" viewBox="0 0 375 374.999991" height="500" preserveAspectRatio="xMidYMid meet" version="1.0"><defs><g/><clipPath id="2f00de548b"><path d="M 117.066406 80.964844 L 258 80.964844 L 258 192.714844 L 117.066406 192.714844 Z M 117.066406 80.964844 " clip-rule="nonzero"/></clipPath></defs><g clip-path="url(#2f00de548b)"><path fill="#000000" d="M 187.847656 192.230469 L 187.847656 187.371094 C 187.847656 187.011719 187.847656 186.65625 187.847656 186.292969 C 187.957031 183.421875 188.296875 180.574219 188.867188 177.757812 C 189.457031 174.746094 190.265625 171.804688 191.195312 169.714844 L 191.363281 169.335938 C 191.679688 168.628906 192.035156 167.804688 192.519531 166.902344 C 193.769531 164.570312 195.832031 161.683594 199.933594 158.789062 C 201.199219 157.890625 202.46875 157.136719 203.789062 156.367188 C 205.660156 155.320312 207.457031 154.15625 209.179688 152.878906 C 210.324219 151.992188 211.410156 151.035156 212.429688 150.007812 C 213.457031 148.984375 214.429688 147.902344 215.351562 146.816406 C 216.15625 145.84375 216.855469 144.800781 217.453125 143.6875 C 218.058594 142.585938 218.542969 141.4375 218.910156 140.238281 C 218.925781 140.1875 218.925781 140.132812 218.910156 140.082031 C 218.648438 138.382812 218.476562 136.675781 218.390625 134.957031 C 218.304688 133.867188 218.347656 132.777344 218.523438 131.695312 C 218.679688 131.128906 218.96875 130.640625 219.390625 130.230469 C 219.53125 130.082031 219.695312 129.976562 219.890625 129.914062 C 220.039062 129.882812 220.171875 129.910156 220.289062 130.003906 C 220.59375 130.296875 220.789062 130.652344 220.882812 131.0625 C 221.3125 132.390625 221.710938 133.855469 222.152344 135.503906 C 222.570312 137.03125 223.03125 138.722656 223.582031 140.578125 C 223.246094 141.285156 222.824219 142.121094 222.394531 142.921875 C 221.902344 143.890625 221.339844 144.816406 220.714844 145.703125 C 220.574219 145.875 220.421875 146.03125 220.25 146.171875 C 220.023438 146.355469 219.785156 146.523438 219.539062 146.675781 C 219.183594 146.90625 218.804688 147.097656 218.40625 147.242188 C 217.976562 147.390625 217.53125 147.496094 217.078125 147.558594 C 216.980469 147.566406 216.902344 147.609375 216.839844 147.6875 C 216.78125 147.761719 216.757812 147.847656 216.773438 147.945312 C 216.789062 148.042969 216.835938 148.117188 216.914062 148.171875 C 216.996094 148.226562 217.085938 148.242188 217.179688 148.222656 C 217.675781 148.148438 218.164062 148.027344 218.636719 147.859375 C 219.082031 147.699219 219.507812 147.484375 219.90625 147.226562 C 220.175781 147.058594 220.433594 146.871094 220.679688 146.671875 C 220.890625 146.503906 221.074219 146.316406 221.242188 146.105469 C 221.894531 145.1875 222.476562 144.226562 222.988281 143.222656 C 223.644531 142.023438 224.238281 140.792969 224.769531 139.53125 C 224.949219 139.070312 225.085938 138.59375 225.175781 138.105469 C 225.265625 137.59375 225.289062 137.074219 225.242188 136.554688 L 224.765625 131.292969 C 224.679688 130.300781 224.617188 129.433594 224.597656 128.566406 C 224.578125 127.699219 224.597656 126.835938 224.671875 125.835938 C 224.734375 125.128906 224.863281 124.433594 225.058594 123.75 C 225.210938 123.183594 225.429688 122.644531 225.722656 122.132812 L 225.722656 122.113281 C 226.078125 121.574219 226.523438 121.121094 227.0625 120.765625 C 227.238281 120.636719 227.433594 120.554688 227.648438 120.515625 C 227.773438 120.5 227.878906 120.539062 227.964844 120.628906 C 228.074219 120.769531 228.140625 120.929688 228.171875 121.101562 C 228.285156 121.617188 228.410156 122.214844 228.53125 122.785156 C 228.726562 123.734375 228.910156 124.578125 229.03125 124.980469 L 229.867188 135.75 C 229.476562 136.617188 229.039062 137.652344 228.625 138.695312 C 228.046875 140.128906 227.511719 141.546875 227.175781 142.433594 C 225.175781 143.558594 223.445312 145.007812 221.988281 146.785156 C 221.199219 147.785156 220.601562 148.609375 220.085938 149.324219 C 218.335938 151.746094 217.476562 152.933594 213.023438 155.402344 C 212.070312 155.921875 211.082031 156.453125 210.097656 156.988281 L 210.082031 156.988281 C 206.519531 158.890625 203.101562 160.691406 200.285156 163.351562 C 200.21875 163.417969 200.1875 163.496094 200.1875 163.589844 C 200.1875 163.683594 200.21875 163.761719 200.285156 163.828125 C 200.347656 163.890625 200.429688 163.925781 200.519531 163.925781 C 200.613281 163.925781 200.691406 163.890625 200.757812 163.828125 C 203.519531 161.226562 206.886719 159.4375 210.410156 157.566406 C 211.363281 157.0625 212.3125 156.554688 213.347656 155.980469 C 217.929688 153.441406 218.820312 152.210938 220.644531 149.703125 C 221.160156 148.988281 221.753906 148.167969 222.527344 147.1875 C 223.417969 146.09375 224.429688 145.125 225.5625 144.28125 C 226.605469 143.472656 227.742188 142.824219 228.96875 142.335938 L 229.199219 142.257812 C 230.066406 141.972656 230.949219 141.855469 231.859375 141.90625 C 232.683594 141.976562 233.402344 142.269531 233.65625 142.957031 L 233.675781 143.015625 C 233.738281 143.210938 233.753906 143.410156 233.730469 143.609375 C 233.699219 143.867188 233.636719 144.117188 233.539062 144.355469 C 233.160156 145.15625 232.71875 145.917969 232.21875 146.648438 C 231.210938 148.195312 230.285156 149.785156 229.4375 151.425781 C 229.183594 151.933594 228.898438 152.417969 228.574219 152.882812 C 228.277344 153.324219 227.945312 153.742188 227.582031 154.132812 C 225.28125 156.609375 223.167969 159.230469 221.238281 162.003906 C 219.550781 164.453125 218.21875 166.800781 217.578125 168.664062 C 217.546875 168.75 217.550781 168.835938 217.59375 168.921875 C 217.632812 169.003906 217.699219 169.058594 217.785156 169.089844 C 217.875 169.125 217.960938 169.121094 218.046875 169.078125 C 218.128906 169.039062 218.183594 168.972656 218.210938 168.878906 C 218.84375 167.078125 220.140625 164.785156 221.792969 162.386719 C 223.703125 159.640625 225.800781 157.042969 228.078125 154.59375 C 228.464844 154.179688 228.816406 153.738281 229.132812 153.269531 C 229.46875 152.777344 229.773438 152.261719 230.042969 151.730469 C 230.359375 151.097656 230.675781 150.503906 230.992188 149.945312 C 233.132812 148.675781 235.765625 146.980469 238.339844 145.140625 C 240.386719 143.699219 242.351562 142.144531 244.226562 140.484375 C 245.054688 139.738281 246.542969 138.578125 248.070312 137.464844 C 249.324219 136.535156 250.621094 135.667969 251.964844 134.867188 C 253.867188 133.792969 255.414062 133.5 256.382812 133.628906 C 256.628906 133.652344 256.855469 133.730469 257.066406 133.855469 C 257.171875 133.917969 257.234375 134.007812 257.257812 134.125 C 257.257812 134.300781 257.195312 134.449219 257.070312 134.574219 C 256.753906 134.945312 253.648438 138.394531 250.492188 141.867188 C 248.367188 144.191406 246.214844 146.53125 244.867188 147.945312 C 243.757812 149.117188 242.644531 150.28125 241.5625 151.433594 C 236.929688 156.351562 232.289062 161.269531 227.304688 165.785156 C 226.242188 166.734375 224.507812 168.132812 222.546875 169.703125 C 219.238281 172.351562 215.289062 175.511719 212.78125 178.054688 C 211.585938 179.265625 210.828125 180.140625 210.402344 181.15625 C 209.972656 182.175781 209.875 183.320312 210.003906 185.046875 C 210.1875 187.585938 210.988281 190.070312 211.5 191.660156 L 211.675781 192.214844 Z M 147.519531 192.902344 L 146.460938 192.902344 C 146.367188 192.902344 146.289062 192.871094 146.222656 192.804688 C 146.15625 192.738281 146.125 192.660156 146.125 192.566406 C 146.125 192.472656 146.15625 192.394531 146.222656 192.328125 C 146.289062 192.261719 146.367188 192.230469 146.460938 192.230469 L 147.519531 192.230469 C 147.609375 192.230469 147.691406 192.261719 147.753906 192.328125 C 147.820312 192.394531 147.855469 192.472656 147.855469 192.566406 C 147.855469 192.660156 147.820312 192.738281 147.753906 192.804688 C 147.691406 192.871094 147.609375 192.902344 147.519531 192.902344 Z M 164.355469 111.53125 L 186.390625 138.976562 L 175.683594 111.53125 Z M 175.742188 110.859375 L 181.039062 103.707031 L 175.675781 103.707031 L 164.777344 110.859375 Z M 187.511719 111.53125 L 176.410156 111.53125 L 187.511719 139.96875 L 198.613281 111.53125 Z M 187.511719 141.226562 C 187.589844 141.226562 187.660156 141.203125 187.71875 141.15625 L 187.773438 141.105469 L 211.617188 111.402344 C 211.675781 111.332031 211.699219 111.25 211.6875 111.15625 C 211.679688 111.066406 211.636719 110.988281 211.566406 110.929688 L 199.617188 103.085938 C 199.5625 103.050781 199.5 103.03125 199.433594 103.03125 L 175.589844 103.03125 C 175.519531 103.03125 175.460938 103.050781 175.402344 103.085938 L 163.457031 110.929688 C 163.382812 110.988281 163.34375 111.066406 163.335938 111.15625 C 163.324219 111.25 163.347656 111.332031 163.40625 111.402344 L 187.246094 141.105469 L 187.296875 141.15625 C 187.359375 141.203125 187.433594 141.226562 187.511719 141.226562 Z M 187.511719 103.707031 L 193.136719 103.707031 L 198.429688 110.859375 L 176.589844 110.859375 L 181.882812 103.707031 Z M 164.703125 119.054688 L 164.988281 118.25 C 165.019531 118.164062 165.078125 118.101562 165.160156 118.0625 C 165.246094 118.023438 165.332031 118.019531 165.417969 118.050781 C 165.507812 118.082031 165.570312 118.140625 165.609375 118.222656 C 165.648438 118.308594 165.652344 118.394531 165.621094 118.480469 L 165.351562 119.261719 C 165.265625 119.4375 165.128906 119.496094 164.941406 119.4375 C 164.753906 119.375 164.679688 119.25 164.714844 119.054688 Z M 173.828125 146.382812 C 172.230469 145.277344 170.789062 144 169.503906 142.542969 C 168.21875 141.089844 167.125 139.5 166.222656 137.78125 C 165.320312 136.0625 164.640625 134.257812 164.175781 132.371094 C 163.714844 130.488281 163.484375 128.574219 163.484375 126.632812 C 163.484375 126.539062 163.515625 126.460938 163.582031 126.394531 C 163.648438 126.328125 163.726562 126.296875 163.820312 126.296875 C 163.914062 126.296875 163.992188 126.328125 164.058594 126.394531 C 164.125 126.460938 164.15625 126.539062 164.15625 126.632812 C 164.15625 128.519531 164.378906 130.378906 164.828125 132.210938 C 165.28125 134.042969 165.941406 135.792969 166.816406 137.464844 C 167.691406 139.136719 168.757812 140.679688 170.003906 142.09375 C 171.253906 143.503906 172.65625 144.75 174.207031 145.820312 C 174.277344 145.875 174.316406 145.949219 174.328125 146.035156 C 174.34375 146.121094 174.324219 146.199219 174.273438 146.273438 C 174.222656 146.34375 174.15625 146.390625 174.070312 146.410156 C 173.984375 146.429688 173.902344 146.417969 173.828125 146.371094 Z M 179.132812 149.15625 L 178.617188 148.953125 L 178.105469 148.746094 C 178.019531 148.710938 177.957031 148.648438 177.921875 148.558594 C 177.882812 148.472656 177.882812 148.386719 177.921875 148.296875 C 177.957031 148.210938 178.015625 148.148438 178.105469 148.113281 C 178.191406 148.074219 178.277344 148.074219 178.367188 148.109375 L 178.863281 148.316406 L 179.367188 148.507812 C 179.453125 148.539062 179.515625 148.597656 179.558594 148.683594 C 179.597656 148.765625 179.601562 148.851562 179.566406 148.941406 C 179.535156 149.027344 179.476562 149.09375 179.394531 149.132812 C 179.308594 149.171875 179.222656 149.175781 179.132812 149.140625 Z M 182.664062 150.320312 C 182.664062 150.960938 182.785156 151.582031 183.03125 152.175781 C 183.277344 152.773438 183.628906 153.296875 184.085938 153.75 C 184.539062 154.203125 185.0625 154.554688 185.65625 154.800781 C 186.25 155.042969 186.867188 155.167969 187.511719 155.164062 C 188.152344 155.164062 188.769531 155.042969 189.359375 154.796875 C 189.953125 154.550781 190.476562 154.203125 190.929688 153.75 C 191.269531 153.410156 191.550781 153.03125 191.777344 152.609375 C 192.003906 152.1875 192.164062 151.742188 192.257812 151.269531 C 192.351562 150.800781 192.375 150.328125 192.328125 149.851562 C 192.28125 149.375 192.167969 148.914062 191.984375 148.472656 C 191.800781 148.027344 191.558594 147.621094 191.253906 147.25 C 190.949219 146.878906 190.601562 146.5625 190.203125 146.296875 C 189.804688 146.027344 189.375 145.824219 188.917969 145.6875 C 188.457031 145.546875 187.988281 145.476562 187.511719 145.476562 C 187.191406 145.476562 186.878906 145.507812 186.566406 145.570312 C 186.253906 145.632812 185.953125 145.722656 185.65625 145.84375 C 185.363281 145.96875 185.085938 146.117188 184.820312 146.292969 C 184.554688 146.46875 184.3125 146.671875 184.085938 146.894531 C 183.863281 147.121094 183.660156 147.363281 183.484375 147.628906 C 183.308594 147.894531 183.15625 148.171875 183.035156 148.464844 C 182.914062 148.757812 182.820312 149.0625 182.757812 149.375 C 182.695312 149.6875 182.664062 150 182.664062 150.320312 Z M 187.511719 146.136719 C 187.230469 146.128906 186.957031 146.152344 186.679688 146.199219 C 186.40625 146.246094 186.136719 146.320312 185.878906 146.421875 C 185.617188 146.523438 185.371094 146.648438 185.136719 146.800781 C 184.902344 146.953125 184.683594 147.125 184.484375 147.320312 C 184.285156 147.511719 184.105469 147.726562 183.949219 147.957031 C 183.792969 148.1875 183.660156 148.429688 183.550781 148.6875 C 183.441406 148.945312 183.359375 149.207031 183.304688 149.480469 C 183.25 149.753906 183.222656 150.03125 183.222656 150.3125 C 183.222656 150.589844 183.25 150.867188 183.304688 151.140625 C 183.359375 151.414062 183.441406 151.675781 183.550781 151.933594 C 183.660156 152.191406 183.792969 152.433594 183.949219 152.664062 C 184.105469 152.894531 184.285156 153.109375 184.484375 153.300781 C 184.683594 153.496094 184.902344 153.667969 185.136719 153.820312 C 185.371094 153.972656 185.617188 154.097656 185.878906 154.199219 C 186.136719 154.300781 186.40625 154.375 186.679688 154.421875 C 186.957031 154.472656 187.230469 154.492188 187.511719 154.484375 C 187.789062 154.492188 188.066406 154.472656 188.339844 154.421875 C 188.617188 154.375 188.882812 154.300781 189.144531 154.199219 C 189.402344 154.097656 189.648438 153.972656 189.886719 153.820312 C 190.121094 153.667969 190.335938 153.496094 190.535156 153.300781 C 190.738281 153.109375 190.914062 152.894531 191.074219 152.664062 C 191.230469 152.433594 191.363281 152.191406 191.472656 151.933594 C 191.578125 151.675781 191.660156 151.414062 191.71875 151.140625 C 191.773438 150.867188 191.800781 150.589844 191.800781 150.3125 C 191.800781 150.03125 191.773438 149.753906 191.71875 149.480469 C 191.660156 149.207031 191.578125 148.945312 191.472656 148.6875 C 191.363281 148.429688 191.230469 148.1875 191.074219 147.957031 C 190.914062 147.726562 190.738281 147.511719 190.535156 147.320312 C 190.335938 147.125 190.121094 146.953125 189.886719 146.800781 C 189.648438 146.648438 189.402344 146.523438 189.144531 146.421875 C 188.882812 146.320312 188.617188 146.246094 188.339844 146.199219 C 188.066406 146.152344 187.789062 146.128906 187.511719 146.136719 Z M 177.578125 97.851562 L 187.21875 81.140625 C 187.25 81.089844 187.292969 81.050781 187.34375 81.019531 C 187.394531 80.992188 187.449219 80.976562 187.511719 80.976562 C 187.570312 80.976562 187.625 80.992188 187.679688 81.019531 C 187.730469 81.050781 187.773438 81.089844 187.804688 81.140625 L 197.445312 97.851562 C 197.519531 98.035156 197.46875 98.171875 197.296875 98.265625 C 197.121094 98.363281 196.980469 98.328125 196.863281 98.167969 L 187.511719 81.980469 L 178.15625 98.183594 C 178.121094 98.277344 178.054688 98.339844 177.960938 98.375 C 177.867188 98.40625 177.777344 98.398438 177.6875 98.351562 C 177.601562 98.304688 177.546875 98.230469 177.523438 98.132812 C 177.5 98.039062 177.519531 97.949219 177.578125 97.867188 Z M 184.871094 95.695312 C 184.871094 96.039062 184.9375 96.371094 185.070312 96.691406 C 185.203125 97.011719 185.390625 97.292969 185.636719 97.535156 C 185.882812 97.78125 186.164062 97.96875 186.480469 98.101562 C 186.800781 98.234375 187.132812 98.300781 187.480469 98.300781 L 187.5625 98.300781 C 188.085938 98.300781 188.570312 98.152344 189.003906 97.863281 C 189.441406 97.570312 189.761719 97.179688 189.964844 96.695312 C 190.164062 96.210938 190.214844 95.710938 190.117188 95.195312 C 190.015625 94.679688 189.78125 94.234375 189.410156 93.859375 C 188.902344 93.351562 188.289062 93.097656 187.566406 93.097656 L 187.484375 93.097656 C 186.765625 93.097656 186.152344 93.351562 185.644531 93.859375 C 185.136719 94.367188 184.882812 94.980469 184.882812 95.695312 Z M 187.519531 93.757812 L 187.480469 93.757812 C 186.945312 93.757812 186.488281 93.949219 186.109375 94.328125 C 185.832031 94.605469 185.65625 94.933594 185.582031 95.316406 C 185.507812 95.703125 185.546875 96.074219 185.695312 96.433594 C 185.84375 96.796875 186.082031 97.085938 186.410156 97.300781 C 186.734375 97.519531 187.089844 97.625 187.480469 97.625 L 187.566406 97.625 C 187.957031 97.625 188.3125 97.519531 188.640625 97.300781 C 188.964844 97.085938 189.203125 96.796875 189.351562 96.433594 C 189.503906 96.074219 189.539062 95.703125 189.464844 95.316406 C 189.390625 94.933594 189.214844 94.605469 188.9375 94.328125 C 188.558594 93.949219 188.105469 93.757812 187.566406 93.757812 Z M 140.226562 176.175781 C 140.917969 176.355469 141.445312 176.753906 141.8125 177.371094 L 141.835938 177.417969 C 142.003906 177.714844 142.109375 178.035156 142.148438 178.371094 C 142.191406 178.710938 142.167969 179.042969 142.078125 179.371094 C 141.992188 179.703125 141.84375 180.003906 141.636719 180.273438 C 141.429688 180.542969 141.179688 180.765625 140.886719 180.9375 L 140.835938 180.964844 C 140.535156 181.132812 140.21875 181.238281 139.878906 181.28125 C 139.539062 181.320312 139.203125 181.296875 138.871094 181.207031 C 138.542969 181.117188 138.242188 180.964844 137.96875 180.757812 C 137.699219 180.546875 137.480469 180.292969 137.308594 179.996094 C 137.136719 179.699219 137.027344 179.378906 136.984375 179.035156 C 136.9375 178.695312 136.960938 178.355469 137.050781 178.023438 C 137.136719 177.691406 137.289062 177.386719 137.496094 177.113281 C 137.707031 176.839844 137.960938 176.617188 138.257812 176.445312 L 138.28125 176.445312 C 138.898438 176.09375 139.550781 176.011719 140.238281 176.199219 Z M 138.597656 177.007812 L 138.582031 177.007812 C 138.363281 177.132812 138.175781 177.296875 138.019531 177.5 C 137.863281 177.703125 137.75 177.925781 137.683594 178.171875 C 137.617188 178.417969 137.597656 178.667969 137.632812 178.921875 C 137.664062 179.171875 137.742188 179.410156 137.867188 179.632812 L 137.886719 179.671875 C 138.015625 179.890625 138.183594 180.074219 138.382812 180.226562 C 138.582031 180.378906 138.804688 180.488281 139.046875 180.550781 C 139.292969 180.617188 139.539062 180.636719 139.789062 180.605469 C 140.039062 180.574219 140.273438 180.496094 140.492188 180.375 L 140.535156 180.347656 C 140.753906 180.21875 140.941406 180.054688 141.09375 179.851562 C 141.246094 179.652344 141.355469 179.429688 141.421875 179.1875 C 141.488281 178.941406 141.503906 178.695312 141.472656 178.445312 C 141.441406 178.195312 141.363281 177.957031 141.242188 177.738281 L 141.242188 177.714844 C 141.113281 177.496094 140.949219 177.304688 140.746094 177.148438 C 140.542969 176.992188 140.320312 176.882812 140.074219 176.816406 C 139.828125 176.746094 139.578125 176.730469 139.324219 176.761719 C 139.070312 176.792969 138.832031 176.871094 138.613281 176.996094 Z M 140.113281 164.070312 C 140.160156 163.992188 140.171875 163.90625 140.148438 163.816406 C 140.121094 163.730469 140.070312 163.660156 139.992188 163.617188 C 139.910156 163.570312 139.824219 163.558594 139.738281 163.582031 C 139.648438 163.605469 139.582031 163.660156 139.535156 163.738281 L 126.824219 185.753906 C 126.777344 185.835938 126.765625 185.917969 126.792969 186.007812 C 126.816406 186.097656 126.867188 186.164062 126.949219 186.210938 C 127 186.238281 127.054688 186.253906 127.113281 186.253906 L 160.050781 186.253906 C 160.140625 186.253906 160.222656 186.222656 160.289062 186.15625 C 160.351562 186.089844 160.386719 186.011719 160.386719 185.917969 C 160.386719 185.824219 160.351562 185.746094 160.289062 185.679688 C 160.222656 185.617188 160.140625 185.582031 160.050781 185.582031 L 127.695312 185.582031 L 140.117188 164.070312 Z M 146.960938 142.015625 C 146.738281 141.914062 146.515625 141.820312 146.300781 141.738281 L 146.042969 141.648438 C 145.09375 141.339844 144.121094 141.214844 143.125 141.273438 C 142.054688 141.363281 141.113281 141.773438 140.753906 142.761719 L 140.71875 142.847656 C 140.632812 143.128906 140.605469 143.417969 140.636719 143.710938 C 140.675781 144.027344 140.753906 144.335938 140.871094 144.632812 C 141.265625 145.472656 141.726562 146.273438 142.253906 147.039062 C 142.570312 147.554688 142.941406 148.125 143.324219 148.757812 C 142.488281 148.246094 141.597656 147.683594 140.683594 147.085938 C 140.179688 145.917969 139.542969 144.414062 138.992188 142.933594 C 138.441406 141.554688 138.019531 140.140625 137.722656 138.683594 C 137.664062 138.328125 137.636719 137.96875 137.640625 137.609375 C 137.648438 137.246094 137.691406 136.890625 137.769531 136.539062 C 138.785156 133.28125 139.730469 130.195312 140.53125 127.242188 C 141.324219 124.375 141.960938 121.472656 142.433594 118.539062 L 142.433594 118.503906 C 142.417969 118.132812 142.523438 117.796875 142.75 117.5 C 142.824219 117.429688 142.914062 117.398438 143.015625 117.414062 C 143.191406 117.445312 143.34375 117.519531 143.472656 117.636719 C 144.011719 118.0625 144.574219 118.988281 144.886719 120.285156 C 145.066406 121.042969 145.183594 121.804688 145.242188 122.582031 C 145.3125 123.347656 145.339844 124.117188 145.324219 124.886719 L 144.480469 135.78125 C 144.476562 135.839844 144.484375 135.890625 144.507812 135.945312 C 144.910156 136.828125 145.355469 137.890625 145.777344 138.941406 C 146.21875 140.042969 146.640625 141.132812 146.960938 141.988281 Z M 162.652344 192.242188 L 152.5625 192.242188 C 152.472656 192.242188 152.390625 192.277344 152.328125 192.34375 C 152.261719 192.40625 152.226562 192.488281 152.226562 192.578125 C 152.226562 192.671875 152.261719 192.75 152.328125 192.816406 C 152.390625 192.882812 152.472656 192.914062 152.5625 192.914062 L 222.457031 192.914062 C 222.550781 192.914062 222.628906 192.882812 222.695312 192.816406 C 222.761719 192.75 222.792969 192.671875 222.792969 192.578125 C 222.792969 192.488281 222.761719 192.40625 222.695312 192.34375 C 222.628906 192.277344 222.550781 192.242188 222.457031 192.242188 L 212.371094 192.242188 C 212.304688 192.027344 212.222656 191.769531 212.128906 191.484375 C 211.617188 189.910156 210.847656 187.472656 210.664062 185.015625 C 210.546875 183.398438 210.628906 182.347656 211.011719 181.433594 C 211.394531 180.519531 212.113281 179.695312 213.253906 178.542969 C 215.746094 176.003906 219.667969 172.875 222.957031 170.242188 C 224.917969 168.671875 226.652344 167.28125 227.742188 166.296875 C 232.757812 161.769531 237.40625 156.832031 242.039062 151.910156 C 243.144531 150.738281 244.261719 149.566406 245.34375 148.421875 C 246.652344 147.046875 248.835938 144.695312 250.976562 142.332031 C 254.148438 138.867188 257.265625 135.40625 257.574219 135.035156 C 257.828125 134.769531 257.941406 134.453125 257.917969 134.085938 C 257.875 133.761719 257.714844 133.515625 257.441406 133.339844 C 257.140625 133.152344 256.816406 133.039062 256.460938 133 C 255.378906 132.851562 253.667969 133.164062 251.628906 134.316406 C 250.265625 135.125 248.945312 136 247.667969 136.941406 C 246.132812 138.054688 244.621094 139.230469 243.765625 140.003906 C 241.910156 141.648438 239.96875 143.1875 237.941406 144.617188 C 237.082031 145.226562 236.214844 145.828125 235.359375 146.398438 C 235.777344 145.421875 236.234375 144.296875 236.660156 143.15625 C 237.21875 141.734375 237.648438 140.277344 237.941406 138.78125 C 238.007812 138.382812 238.035156 137.988281 238.03125 137.585938 C 238.023438 137.175781 237.976562 136.769531 237.886719 136.367188 L 237.886719 136.324219 C 236.875 133.082031 235.929688 130.023438 235.136719 127.058594 C 234.351562 124.222656 233.722656 121.347656 233.25 118.441406 C 233.203125 117.734375 233.007812 117.257812 232.722656 116.996094 C 232.5 116.78125 232.234375 116.691406 231.925781 116.734375 C 231.625 116.777344 231.359375 116.898438 231.125 117.09375 C 230.492188 117.601562 229.828125 118.660156 229.480469 120.117188 C 229.308594 120.835938 229.191406 121.566406 229.121094 122.300781 C 229.027344 121.863281 228.929688 121.410156 228.828125 120.96875 C 228.777344 120.675781 228.65625 120.417969 228.46875 120.191406 C 228.230469 119.929688 227.9375 119.824219 227.585938 119.875 C 227.261719 119.921875 226.96875 120.039062 226.703125 120.226562 C 226.09375 120.652344 225.59375 121.183594 225.203125 121.8125 L 225.203125 121.832031 C 224.878906 122.394531 224.632812 122.988281 224.464844 123.617188 C 224.253906 124.339844 224.117188 125.082031 224.054688 125.835938 C 223.980469 126.847656 223.960938 127.738281 223.980469 128.625 C 224 129.515625 224.058594 130.398438 224.152344 131.402344 L 224.621094 136.644531 C 224.660156 137.105469 224.640625 137.5625 224.5625 138.019531 C 224.480469 138.464844 224.355469 138.898438 224.191406 139.320312 C 224.152344 139.421875 224.105469 139.53125 224.054688 139.652344 C 223.589844 138.066406 223.203125 136.644531 222.851562 135.351562 C 222.398438 133.6875 221.996094 132.214844 221.566406 130.871094 C 221.433594 130.320312 221.15625 129.859375 220.730469 129.484375 C 220.449219 129.257812 220.132812 129.1875 219.78125 129.273438 C 219.46875 129.355469 219.199219 129.511719 218.972656 129.738281 C 218.449219 130.246094 218.089844 130.847656 217.898438 131.546875 C 217.707031 132.6875 217.65625 133.835938 217.746094 134.988281 C 217.835938 136.707031 218.015625 138.414062 218.277344 140.113281 C 217.917969 141.234375 217.449219 142.308594 216.878906 143.335938 C 216.304688 144.410156 215.628906 145.417969 214.851562 146.355469 C 213.941406 147.425781 212.980469 148.496094 211.96875 149.503906 C 210.972656 150.511719 209.914062 151.449219 208.796875 152.316406 C 207.097656 153.582031 205.328125 154.730469 203.484375 155.769531 C 202.160156 156.550781 200.859375 157.316406 199.578125 158.21875 C 195.398438 161.167969 193.285156 164.109375 192 166.492188 C 191.488281 167.441406 191.109375 168.304688 190.78125 169.042969 L 190.613281 169.425781 C 189.660156 171.570312 188.84375 174.558594 188.242188 177.613281 C 187.953125 179.101562 187.714844 180.613281 187.535156 182.050781 C 187.359375 180.617188 187.121094 179.109375 186.828125 177.613281 C 186.230469 174.558594 185.40625 171.570312 184.460938 169.425781 L 184.292969 169.042969 C 183.972656 168.304688 183.585938 167.441406 183.074219 166.492188 C 181.789062 164.109375 179.671875 161.167969 175.492188 158.21875 C 174.222656 157.316406 172.914062 156.550781 171.589844 155.769531 C 169.738281 154.734375 167.964844 153.582031 166.261719 152.320312 C 165.140625 151.453125 164.082031 150.515625 163.089844 149.507812 C 162.078125 148.496094 161.117188 147.429688 160.203125 146.355469 C 158.671875 144.488281 157.523438 142.40625 156.761719 140.113281 C 157.019531 138.410156 157.191406 136.703125 157.277344 134.984375 C 157.367188 133.832031 157.316406 132.6875 157.125 131.546875 C 156.933594 130.851562 156.582031 130.25 156.0625 129.742188 C 155.835938 129.515625 155.566406 129.359375 155.253906 129.277344 C 154.902344 129.191406 154.585938 129.261719 154.300781 129.484375 C 153.878906 129.863281 153.601562 130.324219 153.46875 130.875 C 153.039062 132.21875 152.636719 133.6875 152.183594 135.355469 C 151.832031 136.648438 151.445312 138.058594 150.976562 139.65625 C 150.925781 139.535156 150.882812 139.421875 150.84375 139.320312 C 150.679688 138.902344 150.554688 138.46875 150.472656 138.023438 C 150.394531 137.566406 150.371094 137.109375 150.414062 136.648438 L 150.886719 131.386719 C 150.976562 130.382812 151.039062 129.5 151.058594 128.609375 C 151.078125 127.722656 151.058594 126.832031 150.984375 125.820312 C 150.921875 125.066406 150.78125 124.324219 150.570312 123.597656 C 150.40625 122.972656 150.160156 122.378906 149.835938 121.816406 L 149.835938 121.796875 C 149.445312 121.164062 148.945312 120.636719 148.335938 120.210938 C 148.070312 120.023438 147.773438 119.90625 147.453125 119.859375 C 147.101562 119.808594 146.808594 119.914062 146.570312 120.175781 C 146.382812 120.402344 146.261719 120.660156 146.207031 120.949219 C 146.105469 121.394531 146.011719 121.847656 145.917969 122.285156 C 145.84375 121.558594 145.71875 120.839844 145.546875 120.128906 C 145.199219 118.671875 144.542969 117.613281 143.902344 117.105469 C 143.667969 116.910156 143.402344 116.789062 143.101562 116.746094 C 142.796875 116.707031 142.53125 116.792969 142.304688 117.007812 C 142.019531 117.273438 141.824219 117.746094 141.777344 118.453125 C 141.304688 121.363281 140.679688 124.234375 139.894531 127.074219 C 139.097656 130.035156 138.15625 133.097656 137.140625 136.335938 L 137.140625 136.382812 C 137.050781 136.773438 136.996094 137.171875 136.984375 137.574219 C 136.980469 137.980469 137.011719 138.378906 137.078125 138.78125 C 137.378906 140.277344 137.808594 141.738281 138.371094 143.15625 C 138.796875 144.296875 139.253906 145.421875 139.671875 146.398438 C 138.816406 145.828125 137.949219 145.226562 137.089844 144.617188 C 135.0625 143.1875 133.121094 141.652344 131.261719 140.007812 C 130.40625 139.234375 128.894531 138.054688 127.359375 136.941406 C 126.085938 135.996094 124.765625 135.113281 123.398438 134.300781 C 121.359375 133.148438 119.652344 132.835938 118.566406 132.984375 C 118.214844 133.023438 117.886719 133.136719 117.589844 133.324219 C 117.304688 133.5 117.140625 133.753906 117.097656 134.085938 C 117.074219 134.453125 117.1875 134.769531 117.441406 135.035156 C 117.757812 135.410156 120.871094 138.875 124.039062 142.332031 C 126.195312 144.695312 128.363281 147.046875 129.671875 148.421875 C 130.765625 149.578125 131.871094 150.746094 132.976562 151.910156 C 137.609375 156.832031 142.257812 161.769531 147.273438 166.296875 C 148.363281 167.28125 150.097656 168.671875 152.054688 170.242188 C 155.347656 172.875 159.269531 176.011719 161.761719 178.542969 C 162.902344 179.695312 163.613281 180.515625 164.003906 181.433594 C 164.394531 182.351562 164.46875 183.398438 164.351562 185.015625 C 164.167969 187.472656 163.398438 189.914062 162.886719 191.472656 C 162.792969 191.757812 162.710938 192.015625 162.644531 192.230469 Z M 187.175781 192.242188 L 187.175781 187.371094 C 187.175781 187.011719 187.175781 186.65625 187.175781 186.292969 C 187.0625 183.421875 186.71875 180.574219 186.148438 177.757812 C 185.558594 174.746094 184.75 171.804688 183.824219 169.714844 L 183.65625 169.335938 C 183.339844 168.628906 182.984375 167.804688 182.5 166.902344 C 181.25 164.570312 179.1875 161.683594 175.085938 158.789062 C 173.816406 157.890625 172.550781 157.136719 171.230469 156.367188 C 169.359375 155.320312 167.5625 154.15625 165.839844 152.878906 C 164.691406 151.992188 163.609375 151.035156 162.589844 150.007812 C 161.5625 148.984375 160.589844 147.902344 159.664062 146.816406 C 158.863281 145.84375 158.164062 144.800781 157.566406 143.6875 C 156.964844 142.585938 156.476562 141.4375 156.109375 140.238281 C 156.097656 140.1875 156.097656 140.132812 156.109375 140.082031 C 156.375 138.382812 156.546875 136.675781 156.628906 134.957031 C 156.714844 133.867188 156.671875 132.777344 156.496094 131.695312 C 156.34375 131.128906 156.054688 130.640625 155.632812 130.230469 C 155.492188 130.082031 155.324219 129.976562 155.128906 129.914062 C 154.984375 129.882812 154.851562 129.910156 154.734375 130.003906 C 154.429688 130.296875 154.230469 130.652344 154.136719 131.0625 C 153.710938 132.390625 153.308594 133.855469 152.867188 135.503906 C 152.449219 137.03125 151.988281 138.722656 151.441406 140.578125 C 151.777344 141.285156 152.199219 142.121094 152.628906 142.921875 C 153.121094 143.890625 153.679688 144.816406 154.308594 145.703125 C 154.445312 145.875 154.601562 146.03125 154.773438 146.171875 C 154.996094 146.355469 155.234375 146.523438 155.480469 146.675781 C 155.839844 146.90625 156.214844 147.097656 156.613281 147.242188 C 157.046875 147.390625 157.488281 147.496094 157.945312 147.558594 C 158.039062 147.566406 158.121094 147.609375 158.179688 147.6875 C 158.242188 147.761719 158.265625 147.847656 158.25 147.945312 C 158.234375 148.042969 158.1875 148.117188 158.105469 148.171875 C 158.023438 148.226562 157.9375 148.242188 157.84375 148.222656 C 157.34375 148.148438 156.859375 148.027344 156.386719 147.859375 C 155.9375 147.699219 155.515625 147.484375 155.117188 147.226562 C 154.847656 147.058594 154.585938 146.871094 154.339844 146.671875 C 154.132812 146.503906 153.945312 146.316406 153.777344 146.105469 C 153.125 145.1875 152.542969 144.226562 152.035156 143.222656 C 151.378906 142.023438 150.785156 140.792969 150.253906 139.53125 C 150.070312 139.070312 149.9375 138.59375 149.847656 138.105469 C 149.757812 137.59375 149.734375 137.074219 149.777344 136.554688 L 150.253906 131.292969 C 150.34375 130.300781 150.402344 129.433594 150.421875 128.566406 C 150.441406 127.699219 150.421875 126.835938 150.351562 125.835938 C 150.289062 125.128906 150.160156 124.433594 149.964844 123.75 C 149.8125 123.183594 149.589844 122.644531 149.300781 122.132812 L 149.300781 122.113281 C 148.945312 121.574219 148.5 121.121094 147.957031 120.765625 C 147.785156 120.636719 147.589844 120.554688 147.375 120.515625 C 147.25 120.5 147.144531 120.539062 147.058594 120.628906 C 146.949219 120.769531 146.878906 120.929688 146.851562 121.101562 C 146.738281 121.617188 146.609375 122.214844 146.488281 122.785156 C 146.292969 123.734375 146.113281 124.578125 145.988281 124.980469 L 145.15625 135.75 C 145.546875 136.617188 145.984375 137.652344 146.398438 138.695312 C 146.976562 140.128906 147.511719 141.546875 147.84375 142.433594 C 149.847656 143.558594 151.578125 145.007812 153.035156 146.785156 C 153.824219 147.785156 154.417969 148.609375 154.9375 149.324219 C 156.6875 151.746094 157.542969 152.933594 162 155.402344 C 162.953125 155.921875 163.9375 156.453125 164.925781 156.988281 C 168.488281 158.890625 171.902344 160.691406 174.722656 163.351562 C 174.789062 163.417969 174.820312 163.496094 174.820312 163.589844 C 174.820312 163.683594 174.789062 163.761719 174.722656 163.828125 C 174.65625 163.890625 174.578125 163.925781 174.484375 163.925781 C 174.394531 163.925781 174.316406 163.890625 174.25 163.828125 C 171.488281 161.226562 168.117188 159.4375 164.59375 157.566406 C 163.644531 157.0625 162.691406 156.554688 161.65625 155.980469 C 157.074219 153.441406 156.1875 152.210938 154.363281 149.703125 C 153.84375 148.988281 153.253906 148.167969 152.476562 147.1875 C 151.585938 146.09375 150.574219 145.125 149.441406 144.28125 C 148.398438 143.472656 147.265625 142.824219 146.035156 142.335938 L 145.804688 142.257812 C 144.941406 141.972656 144.054688 141.855469 143.148438 141.90625 C 142.324219 141.976562 141.601562 142.269531 141.347656 142.957031 L 141.328125 143.015625 C 141.269531 143.210938 141.25 143.410156 141.277344 143.609375 C 141.304688 143.867188 141.371094 144.117188 141.464844 144.355469 C 141.847656 145.152344 142.289062 145.917969 142.789062 146.648438 C 143.796875 148.195312 144.722656 149.785156 145.566406 151.425781 C 145.820312 151.933594 146.109375 152.417969 146.429688 152.882812 C 146.730469 153.324219 147.0625 153.742188 147.421875 154.132812 C 149.722656 156.609375 151.835938 159.230469 153.765625 162.003906 C 155.453125 164.453125 156.789062 166.800781 157.429688 168.664062 C 157.460938 168.75 157.453125 168.835938 157.414062 168.921875 C 157.371094 169.003906 157.308594 169.058594 157.21875 169.089844 C 157.132812 169.125 157.046875 169.121094 156.960938 169.078125 C 156.875 169.039062 156.820312 168.972656 156.796875 168.878906 C 156.160156 167.078125 154.867188 164.785156 153.214844 162.386719 C 151.300781 159.640625 149.207031 157.042969 146.929688 154.59375 C 146.542969 154.179688 146.191406 153.738281 145.871094 153.269531 C 145.535156 152.777344 145.234375 152.261719 144.964844 151.730469 C 144.648438 151.097656 144.332031 150.503906 144.011719 149.945312 C 141.871094 148.675781 139.253906 146.980469 136.667969 145.140625 C 134.617188 143.699219 132.65625 142.144531 130.78125 140.484375 C 129.953125 139.738281 128.460938 138.578125 126.9375 137.464844 C 125.46875 136.402344 123.984375 135.394531 123.042969 134.867188 C 121.136719 133.792969 119.589844 133.5 118.621094 133.628906 C 118.378906 133.652344 118.152344 133.730469 117.941406 133.855469 C 117.835938 133.917969 117.769531 134.007812 117.746094 134.125 C 117.75 134.300781 117.808594 134.449219 117.933594 134.574219 C 118.25 134.945312 121.355469 138.394531 124.511719 141.867188 C 126.636719 144.191406 128.792969 146.53125 130.140625 147.945312 C 131.25 149.117188 132.359375 150.28125 133.445312 151.433594 C 138.074219 156.351562 142.71875 161.269531 147.703125 165.785156 C 148.765625 166.734375 150.5 168.132812 152.460938 169.703125 C 155.769531 172.351562 159.714844 175.511719 162.226562 178.054688 C 163.421875 179.265625 164.175781 180.140625 164.605469 181.15625 C 165.03125 182.175781 165.128906 183.320312 165.003906 185.046875 C 164.816406 187.585938 164.015625 190.070312 163.507812 191.660156 L 163.328125 192.214844 Z M 228.058594 142.015625 C 228.285156 141.914062 228.507812 141.820312 228.722656 141.738281 L 228.980469 141.648438 C 229.925781 141.339844 230.902344 141.214844 231.898438 141.273438 C 232.964844 141.363281 233.90625 141.773438 234.269531 142.761719 L 234.300781 142.847656 C 234.390625 143.128906 234.417969 143.417969 234.382812 143.710938 C 234.347656 144.027344 234.269531 144.335938 234.148438 144.632812 C 233.753906 145.472656 233.292969 146.273438 232.769531 147.039062 C 232.453125 147.554688 232.082031 148.125 231.695312 148.757812 C 232.535156 148.246094 233.421875 147.683594 234.339844 147.085938 C 234.84375 145.917969 235.476562 144.414062 236.03125 142.933594 C 236.582031 141.554688 237.003906 140.140625 237.296875 138.683594 C 237.359375 138.328125 237.386719 137.96875 237.382812 137.609375 C 237.375 137.246094 237.332031 136.890625 237.253906 136.539062 C 236.234375 133.28125 235.289062 130.195312 234.492188 127.242188 C 233.695312 124.375 233.0625 121.472656 232.589844 118.539062 L 232.589844 118.503906 C 232.605469 118.132812 232.5 117.796875 232.269531 117.5 C 232.195312 117.429688 232.109375 117.398438 232.003906 117.414062 C 231.832031 117.445312 231.679688 117.519531 231.546875 117.636719 C 231.007812 118.0625 230.449219 118.988281 230.136719 120.285156 C 229.957031 121.042969 229.835938 121.804688 229.777344 122.582031 C 229.710938 123.347656 229.683594 124.117188 229.695312 124.886719 L 230.542969 135.78125 C 230.546875 135.839844 230.535156 135.890625 230.515625 135.945312 C 230.109375 136.828125 229.667969 137.890625 229.246094 138.941406 C 228.804688 140.042969 228.382812 141.132812 228.058594 141.988281 Z M 234.90625 164.085938 L 247.328125 185.59375 L 214.976562 185.59375 C 214.882812 185.59375 214.804688 185.628906 214.738281 185.695312 C 214.671875 185.757812 214.640625 185.839844 214.640625 185.929688 C 214.640625 186.023438 214.671875 186.105469 214.738281 186.167969 C 214.804688 186.234375 214.882812 186.269531 214.976562 186.269531 L 247.910156 186.269531 C 247.96875 186.265625 248.023438 186.253906 248.074219 186.222656 C 248.152344 186.175781 248.207031 186.109375 248.230469 186.019531 C 248.253906 185.929688 248.242188 185.847656 248.195312 185.765625 L 235.488281 163.75 C 235.441406 163.671875 235.375 163.617188 235.285156 163.59375 C 235.195312 163.570312 235.109375 163.578125 235.03125 163.625 C 234.949219 163.671875 234.898438 163.738281 234.875 163.828125 C 234.847656 163.917969 234.859375 164.003906 234.90625 164.085938 Z M 236.421875 177.019531 C 236.199219 176.894531 235.964844 176.816406 235.710938 176.78125 C 235.457031 176.75 235.207031 176.769531 234.960938 176.835938 C 234.714844 176.90625 234.488281 177.015625 234.289062 177.171875 C 234.085938 177.328125 233.921875 177.515625 233.792969 177.738281 L 233.792969 177.761719 C 233.671875 177.980469 233.59375 178.214844 233.5625 178.46875 C 233.53125 178.71875 233.546875 178.964844 233.613281 179.207031 C 233.679688 179.453125 233.789062 179.675781 233.941406 179.875 C 234.09375 180.074219 234.28125 180.242188 234.496094 180.367188 L 234.542969 180.398438 C 234.761719 180.519531 234.996094 180.597656 235.246094 180.625 C 235.496094 180.65625 235.742188 180.640625 235.988281 180.574219 C 236.230469 180.507812 236.453125 180.402344 236.652344 180.25 C 236.851562 180.097656 237.019531 179.914062 237.144531 179.695312 L 237.167969 179.65625 C 237.292969 179.433594 237.371094 179.195312 237.402344 178.941406 C 237.433594 178.6875 237.417969 178.441406 237.351562 178.195312 C 237.28125 177.949219 237.171875 177.722656 237.015625 177.523438 C 236.859375 177.320312 236.671875 177.15625 236.453125 177.027344 L 236.4375 177.027344 Z M 234.796875 176.1875 C 234.101562 176.367188 233.574219 176.765625 233.210938 177.382812 L 233.183594 177.429688 C 233.019531 177.730469 232.914062 178.046875 232.871094 178.382812 C 232.832031 178.722656 232.855469 179.054688 232.941406 179.386719 C 233.03125 179.714844 233.179688 180.015625 233.386719 180.285156 C 233.59375 180.558594 233.84375 180.777344 234.136719 180.953125 L 234.1875 180.976562 C 234.484375 181.144531 234.804688 181.25 235.144531 181.292969 C 235.484375 181.335938 235.820312 181.308594 236.148438 181.21875 C 236.480469 181.128906 236.78125 180.980469 237.050781 180.769531 C 237.324219 180.558594 237.542969 180.308594 237.714844 180.011719 C 237.886719 179.710938 237.996094 179.390625 238.039062 179.050781 C 238.085938 178.707031 238.0625 178.371094 237.972656 178.035156 C 237.882812 177.703125 237.734375 177.402344 237.523438 177.128906 C 237.316406 176.851562 237.0625 176.628906 236.761719 176.457031 L 236.742188 176.457031 C 236.121094 176.109375 235.46875 176.023438 234.785156 176.210938 Z M 195.886719 149.15625 L 196.40625 148.953125 L 196.914062 148.746094 C 197.003906 148.710938 197.066406 148.648438 197.101562 148.5625 C 197.136719 148.472656 197.136719 148.386719 197.101562 148.296875 C 197.066406 148.210938 197.003906 148.148438 196.917969 148.113281 C 196.832031 148.074219 196.742188 148.074219 196.65625 148.109375 L 196.15625 148.316406 L 195.65625 148.507812 C 195.566406 148.539062 195.503906 148.597656 195.464844 148.683594 C 195.425781 148.765625 195.421875 148.851562 195.453125 148.941406 C 195.484375 149.027344 195.542969 149.09375 195.628906 149.132812 C 195.714844 149.171875 195.800781 149.175781 195.886719 149.140625 Z M 201.195312 146.382812 C 202.789062 145.277344 204.234375 144 205.519531 142.542969 C 206.804688 141.089844 207.898438 139.5 208.800781 137.78125 C 209.699219 136.0625 210.382812 134.257812 210.84375 132.371094 C 211.308594 130.488281 211.539062 128.574219 211.539062 126.632812 C 211.539062 126.539062 211.503906 126.460938 211.4375 126.394531 C 211.375 126.328125 211.292969 126.296875 211.199219 126.296875 C 211.109375 126.296875 211.027344 126.328125 210.964844 126.394531 C 210.898438 126.460938 210.863281 126.539062 210.863281 126.632812 C 210.867188 128.519531 210.640625 130.378906 210.191406 132.210938 C 209.742188 134.042969 209.078125 135.792969 208.203125 137.464844 C 207.328125 139.136719 206.265625 140.679688 205.015625 142.09375 C 203.765625 143.503906 202.367188 144.75 200.8125 145.820312 C 200.730469 145.871094 200.675781 145.941406 200.65625 146.039062 C 200.632812 146.132812 200.648438 146.222656 200.707031 146.300781 C 200.761719 146.382812 200.835938 146.429688 200.933594 146.445312 C 201.03125 146.457031 201.117188 146.433594 201.195312 146.371094 Z M 210.320312 119.054688 C 210.355469 119.25 210.28125 119.375 210.09375 119.4375 C 209.90625 119.496094 209.769531 119.4375 209.683594 119.261719 L 209.394531 118.480469 C 209.363281 118.394531 209.371094 118.308594 209.410156 118.222656 C 209.449219 118.140625 209.511719 118.082031 209.597656 118.050781 C 209.6875 118.019531 209.773438 118.023438 209.855469 118.0625 C 209.941406 118.101562 210 118.164062 210.03125 118.25 L 210.316406 119.054688 Z M 199.265625 110.859375 L 193.972656 103.707031 L 199.332031 103.707031 L 210.230469 110.859375 Z M 210.652344 111.53125 L 199.324219 111.53125 L 188.617188 138.976562 L 210.664062 111.53125 Z M 227.503906 192.902344 L 228.558594 192.902344 C 228.652344 192.902344 228.730469 192.871094 228.796875 192.804688 C 228.863281 192.738281 228.898438 192.660156 228.898438 192.566406 C 228.898438 192.472656 228.863281 192.394531 228.796875 192.328125 C 228.730469 192.261719 228.652344 192.230469 228.558594 192.230469 L 227.503906 192.230469 C 227.410156 192.230469 227.332031 192.261719 227.265625 192.328125 C 227.199219 192.394531 227.167969 192.472656 227.167969 192.566406 C 227.167969 192.660156 227.199219 192.738281 227.265625 192.804688 C 227.332031 192.871094 227.410156 192.902344 227.503906 192.902344 Z M 227.503906 192.902344 " fill-opacity="1" fill-rule="evenodd"/></g><path stroke-linecap="round" transform="matrix(0.75, 0, 0, 0.75, 71.975069, 192.2047)" fill="none" stroke-linejoin="miter" d="M 0.501992 0.4979 L 86.356164 0.4979 " stroke="#000000" stroke-width="1" stroke-opacity="1" stroke-miterlimit="4"/><path stroke-linecap="round" transform="matrix(0.75, 0, 0, 0.75, 237.881898, 192.2047)" fill="none" stroke-linejoin="miter" d="M 0.50122 0.4979 L 86.355392 0.4979 " stroke="#000000" stroke-width="1" stroke-opacity="1" stroke-miterlimit="4"/><path stroke-linecap="round" transform="matrix(0.75, 0, 0, 0.75, 158.065453, 289.716807)" fill="none" stroke-linejoin="miter" d="M 0.501271 0.502591 L 77.990859 0.502591 " stroke="#000000" stroke-width="1" stroke-opacity="1" stroke-miterlimit="4"/><g fill="#000000" fill-opacity="1"><g transform="translate(107.348179, 232.436058)"><g><path d="M 19 -7.390625 L 20.4375 -7.390625 C 20.53125 -7.015625 20.617188 -6.5625 20.703125 -6.03125 C 20.785156 -5.5 20.851562 -4.9375 20.90625 -4.34375 C 20.96875 -3.75 21.007812 -3.15625 21.03125 -2.5625 C 21.050781 -1.976562 21.0625 -1.453125 21.0625 -0.984375 C 20.25 -0.472656 19.222656 -0.113281 17.984375 0.09375 C 16.753906 0.3125 15.492188 0.421875 14.203125 0.421875 C 12.265625 0.421875 10.503906 0.179688 8.921875 -0.296875 C 7.335938 -0.773438 5.988281 -1.535156 4.875 -2.578125 C 3.757812 -3.628906 2.894531 -4.957031 2.28125 -6.5625 C 1.675781 -8.164062 1.375 -10.09375 1.375 -12.34375 C 1.375 -14.570312 1.707031 -16.488281 2.375 -18.09375 C 3.039062 -19.695312 3.9375 -21.015625 5.0625 -22.046875 C 6.1875 -23.078125 7.492188 -23.832031 8.984375 -24.3125 C 10.472656 -24.800781 12.039062 -25.046875 13.6875 -25.046875 C 15.226562 -25.046875 16.625 -24.929688 17.875 -24.703125 C 19.132812 -24.484375 20.164062 -24.1875 20.96875 -23.8125 C 20.96875 -23.4375 20.945312 -22.953125 20.90625 -22.359375 C 20.875 -21.773438 20.816406 -21.160156 20.734375 -20.515625 C 20.648438 -19.878906 20.554688 -19.25 20.453125 -18.625 C 20.347656 -18 20.25 -17.476562 20.15625 -17.0625 L 18.671875 -17.0625 L 16.734375 -22.375 C 16.523438 -22.488281 16.1875 -22.578125 15.71875 -22.640625 C 15.25 -22.710938 14.769531 -22.75 14.28125 -22.75 C 13.320312 -22.75 12.421875 -22.554688 11.578125 -22.171875 C 10.734375 -21.785156 9.976562 -21.171875 9.3125 -20.328125 C 8.65625 -19.484375 8.140625 -18.398438 7.765625 -17.078125 C 7.390625 -15.753906 7.203125 -14.164062 7.203125 -12.3125 C 7.203125 -8.957031 7.867188 -6.375 9.203125 -4.5625 C 10.546875 -2.757812 12.367188 -1.859375 14.671875 -1.859375 C 15.328125 -1.859375 15.878906 -1.910156 16.328125 -2.015625 C 16.785156 -2.128906 17.097656 -2.28125 17.265625 -2.46875 Z M 19 -7.390625 "/></g></g></g><g fill="#000000" fill-opacity="1"><g transform="translate(133.857314, 232.436058)"><g><path d="M 19.203125 -24.625 C 19.160156 -23.5625 19.078125 -22.46875 18.953125 -21.34375 C 18.835938 -20.21875 18.6875 -19.164062 18.5 -18.1875 L 17.0625 -18.1875 L 15.4375 -22.328125 L 8.859375 -22.328125 L 8.859375 -13.71875 L 13.15625 -13.71875 L 14.703125 -16.421875 L 15.828125 -16.421875 C 15.941406 -15.273438 16 -14 16 -12.59375 C 16 -11.1875 15.941406 -9.875 15.828125 -8.65625 L 14.703125 -8.65625 L 13.15625 -11.4375 L 8.859375 -11.4375 L 8.859375 -2.28125 L 15.71875 -2.28125 L 17.59375 -6.75 L 19.03125 -6.75 C 19.125 -6.300781 19.21875 -5.796875 19.3125 -5.234375 C 19.40625 -4.671875 19.476562 -4.09375 19.53125 -3.5 C 19.59375 -2.90625 19.640625 -2.300781 19.671875 -1.6875 C 19.710938 -1.082031 19.734375 -0.519531 19.734375 0 L 0.703125 0 L 0.703125 -1.34375 C 1.097656 -1.550781 1.539062 -1.75 2.03125 -1.9375 C 2.53125 -2.125 3.050781 -2.265625 3.59375 -2.359375 L 3.59375 -22.265625 C 3.125 -22.359375 2.625 -22.492188 2.09375 -22.671875 C 1.5625 -22.847656 1.097656 -23.050781 0.703125 -23.28125 L 0.703125 -24.625 Z M 19.203125 -24.625 "/></g></g></g><g fill="#000000" fill-opacity="1"><g transform="translate(158.678949, 232.436058)"><g><path d="M 15.9375 -24.625 L 24.546875 -24.625 L 24.546875 -23.28125 C 24.191406 -23.070312 23.796875 -22.867188 23.359375 -22.671875 C 22.929688 -22.472656 22.492188 -22.335938 22.046875 -22.265625 L 15.234375 -10.3125 L 15.234375 -2.359375 C 15.703125 -2.304688 16.160156 -2.179688 16.609375 -1.984375 C 17.066406 -1.785156 17.5 -1.570312 17.90625 -1.34375 L 17.90625 0 L 7.0625 0 L 7.0625 -1.34375 C 7.46875 -1.550781 7.914062 -1.75 8.40625 -1.9375 C 8.894531 -2.125 9.410156 -2.265625 9.953125 -2.359375 L 9.953125 -10.265625 L 2.84375 -22.265625 C 2.3125 -22.359375 1.800781 -22.5 1.3125 -22.6875 C 0.832031 -22.875 0.394531 -23.070312 0 -23.28125 L 0 -24.625 L 11.53125 -24.625 L 11.53125 -23.28125 C 11.207031 -23.09375 10.832031 -22.90625 10.40625 -22.71875 C 9.988281 -22.53125 9.5 -22.378906 8.9375 -22.265625 L 13.96875 -12.84375 L 18.75 -22.265625 C 18.207031 -22.378906 17.6875 -22.53125 17.1875 -22.71875 C 16.695312 -22.90625 16.28125 -23.09375 15.9375 -23.28125 Z M 15.9375 -24.625 "/></g></g></g><g fill="#000000" fill-opacity="1"><g transform="translate(186.805269, 232.436058)"><g><path d="M 0.703125 -24.625 L 12.234375 -24.625 L 12.234375 -23.28125 C 11.742188 -23.019531 11.195312 -22.800781 10.59375 -22.625 C 10 -22.457031 9.421875 -22.335938 8.859375 -22.265625 L 8.859375 -2.28125 L 15.65625 -2.28125 L 18.015625 -8.578125 L 19.453125 -8.578125 C 19.546875 -8.035156 19.632812 -7.398438 19.71875 -6.671875 C 19.800781 -5.953125 19.863281 -5.191406 19.90625 -4.390625 C 19.957031 -3.597656 19.992188 -2.8125 20.015625 -2.03125 C 20.035156 -1.257812 20.035156 -0.582031 20.015625 0 L 0.703125 0 L 0.703125 -1.34375 C 1.242188 -1.625 1.753906 -1.84375 2.234375 -2 C 2.710938 -2.164062 3.164062 -2.285156 3.59375 -2.359375 L 3.59375 -22.265625 C 2.4375 -22.453125 1.472656 -22.789062 0.703125 -23.28125 Z M 0.703125 -24.625 "/></g></g></g><g fill="#000000" fill-opacity="1"><g transform="translate(210.888626, 232.436058)"><g><path d="M 1.375 -12.3125 C 1.375 -14.132812 1.628906 -15.828125 2.140625 -17.390625 C 2.660156 -18.953125 3.421875 -20.300781 4.421875 -21.4375 C 5.429688 -22.570312 6.675781 -23.457031 8.15625 -24.09375 C 9.632812 -24.726562 11.335938 -25.046875 13.265625 -25.046875 C 15.179688 -25.046875 16.878906 -24.726562 18.359375 -24.09375 C 19.835938 -23.457031 21.070312 -22.570312 22.0625 -21.4375 C 23.0625 -20.300781 23.816406 -18.953125 24.328125 -17.390625 C 24.847656 -15.828125 25.109375 -14.132812 25.109375 -12.3125 C 25.109375 -10.476562 24.847656 -8.78125 24.328125 -7.21875 C 23.816406 -5.664062 23.0625 -4.320312 22.0625 -3.1875 C 21.070312 -2.050781 19.835938 -1.164062 18.359375 -0.53125 C 16.878906 0.101562 15.179688 0.421875 13.265625 0.421875 C 11.335938 0.421875 9.632812 0.101562 8.15625 -0.53125 C 6.675781 -1.164062 5.429688 -2.050781 4.421875 -3.1875 C 3.421875 -4.320312 2.660156 -5.664062 2.140625 -7.21875 C 1.628906 -8.78125 1.375 -10.476562 1.375 -12.3125 Z M 7.34375 -12.3125 C 7.34375 -10.8125 7.457031 -9.421875 7.6875 -8.140625 C 7.925781 -6.859375 8.296875 -5.753906 8.796875 -4.828125 C 9.304688 -3.910156 9.953125 -3.1875 10.734375 -2.65625 C 11.523438 -2.125 12.472656 -1.859375 13.578125 -1.859375 C 14.585938 -1.859375 15.441406 -2.125 16.140625 -2.65625 C 16.847656 -3.1875 17.421875 -3.910156 17.859375 -4.828125 C 18.304688 -5.753906 18.628906 -6.859375 18.828125 -8.140625 C 19.035156 -9.421875 19.140625 -10.8125 19.140625 -12.3125 C 19.140625 -13.8125 19.023438 -15.195312 18.796875 -16.46875 C 18.578125 -17.75 18.222656 -18.851562 17.734375 -19.78125 C 17.253906 -20.707031 16.625 -21.429688 15.84375 -21.953125 C 15.0625 -22.484375 14.109375 -22.75 12.984375 -22.75 C 11.898438 -22.75 10.992188 -22.484375 10.265625 -21.953125 C 9.546875 -21.429688 8.96875 -20.707031 8.53125 -19.78125 C 8.09375 -18.851562 7.785156 -17.75 7.609375 -16.46875 C 7.429688 -15.195312 7.34375 -13.8125 7.34375 -12.3125 Z M 7.34375 -12.3125 "/></g></g></g><g fill="#000000" fill-opacity="1"><g transform="translate(240.983702, 232.436058)"><g><path d="M 17.234375 -24.625 L 25.953125 -24.625 L 25.953125 -23.28125 C 25.503906 -22.925781 25.007812 -22.613281 24.46875 -22.34375 C 23.9375 -22.082031 23.4375 -21.878906 22.96875 -21.734375 L 22.96875 0.421875 L 19.984375 0.421875 L 7.5625 -17.515625 L 6.15625 -20.21875 L 6.046875 -20.21875 L 6.359375 -17.40625 L 6.359375 -2.75 C 6.828125 -2.625 7.347656 -2.425781 7.921875 -2.15625 C 8.503906 -1.894531 8.992188 -1.625 9.390625 -1.34375 L 9.390625 0 L 0.703125 0 L 0.703125 -1.34375 C 1.128906 -1.625 1.59375 -1.882812 2.09375 -2.125 C 2.59375 -2.375 3.113281 -2.582031 3.65625 -2.75 L 3.65625 -21.953125 C 3.1875 -22.140625 2.71875 -22.347656 2.25 -22.578125 C 1.78125 -22.816406 1.359375 -23.0625 0.984375 -23.3125 L 0.984375 -24.625 L 8.578125 -24.625 L 18.671875 -9.984375 L 20.296875 -6.96875 L 20.4375 -6.96875 L 20.265625 -9.984375 L 20.265625 -21.734375 C 19.703125 -21.921875 19.15625 -22.148438 18.625 -22.421875 C 18.09375 -22.691406 17.628906 -22.976562 17.234375 -23.28125 Z M 17.234375 -24.625 "/></g></g></g><g fill="#000000" fill-opacity="1"><g transform="translate(132.871614, 272.186056)"><g><path d="M 22.375 -1.546875 C 21.90625 -1.316406 21.328125 -1.082031 20.640625 -0.84375 C 19.960938 -0.613281 19.25 -0.398438 18.5 -0.203125 C 17.75 -0.015625 17 0.132812 16.25 0.25 C 15.5 0.363281 14.832031 0.421875 14.25 0.421875 C 12.226562 0.421875 10.425781 0.160156 8.84375 -0.359375 C 7.257812 -0.890625 5.910156 -1.6875 4.796875 -2.75 C 3.679688 -3.820312 2.832031 -5.15625 2.25 -6.75 C 1.664062 -8.34375 1.375 -10.195312 1.375 -12.3125 C 1.375 -14.601562 1.726562 -16.550781 2.4375 -18.15625 C 3.15625 -19.769531 4.101562 -21.085938 5.28125 -22.109375 C 6.46875 -23.128906 7.8125 -23.875 9.3125 -24.34375 C 10.820312 -24.8125 12.359375 -25.046875 13.921875 -25.046875 C 15.472656 -25.046875 16.925781 -24.9375 18.28125 -24.71875 C 19.644531 -24.507812 20.726562 -24.207031 21.53125 -23.8125 C 21.53125 -23.457031 21.507812 -23.003906 21.46875 -22.453125 C 21.4375 -21.898438 21.382812 -21.304688 21.3125 -20.671875 C 21.238281 -20.046875 21.148438 -19.414062 21.046875 -18.78125 C 20.941406 -18.144531 20.820312 -17.570312 20.6875 -17.0625 L 19.234375 -17.0625 L 17.265625 -22.40625 C 17.003906 -22.519531 16.613281 -22.601562 16.09375 -22.65625 C 15.582031 -22.71875 15.070312 -22.75 14.5625 -22.75 C 13.601562 -22.75 12.675781 -22.5625 11.78125 -22.1875 C 10.894531 -21.8125 10.109375 -21.207031 9.421875 -20.375 C 8.742188 -19.550781 8.203125 -18.472656 7.796875 -17.140625 C 7.398438 -15.816406 7.203125 -14.207031 7.203125 -12.3125 C 7.203125 -10.757812 7.382812 -9.34375 7.75 -8.0625 C 8.113281 -6.789062 8.625 -5.695312 9.28125 -4.78125 C 9.9375 -3.863281 10.722656 -3.144531 11.640625 -2.625 C 12.554688 -2.113281 13.566406 -1.859375 14.671875 -1.859375 C 15.015625 -1.859375 15.375 -1.890625 15.75 -1.953125 C 16.125 -2.015625 16.472656 -2.09375 16.796875 -2.1875 C 17.128906 -2.28125 17.421875 -2.382812 17.671875 -2.5 C 17.921875 -2.613281 18.09375 -2.71875 18.1875 -2.8125 L 18.1875 -9.421875 C 17.570312 -9.472656 16.992188 -9.59375 16.453125 -9.78125 C 15.921875 -9.96875 15.421875 -10.191406 14.953125 -10.453125 L 14.953125 -11.78125 L 24.546875 -11.78125 L 24.546875 -10.453125 C 24.335938 -10.234375 24.054688 -10.035156 23.703125 -9.859375 C 23.347656 -9.691406 22.90625 -9.546875 22.375 -9.421875 Z M 22.375 -1.546875 "/></g></g></g><g fill="#000000" fill-opacity="1"><g transform="translate(161.384656, 272.186056)"><g><path d="M 19.203125 -24.625 C 19.160156 -23.5625 19.078125 -22.46875 18.953125 -21.34375 C 18.835938 -20.21875 18.6875 -19.164062 18.5 -18.1875 L 17.0625 -18.1875 L 15.4375 -22.328125 L 8.859375 -22.328125 L 8.859375 -13.71875 L 13.15625 -13.71875 L 14.703125 -16.421875 L 15.828125 -16.421875 C 15.941406 -15.273438 16 -14 16 -12.59375 C 16 -11.1875 15.941406 -9.875 15.828125 -8.65625 L 14.703125 -8.65625 L 13.15625 -11.4375 L 8.859375 -11.4375 L 8.859375 -2.28125 L 15.71875 -2.28125 L 17.59375 -6.75 L 19.03125 -6.75 C 19.125 -6.300781 19.21875 -5.796875 19.3125 -5.234375 C 19.40625 -4.671875 19.476562 -4.09375 19.53125 -3.5 C 19.59375 -2.90625 19.640625 -2.300781 19.671875 -1.6875 C 19.710938 -1.082031 19.734375 -0.519531 19.734375 0 L 0.703125 0 L 0.703125 -1.34375 C 1.097656 -1.550781 1.539062 -1.75 2.03125 -1.9375 C 2.53125 -2.125 3.050781 -2.265625 3.59375 -2.359375 L 3.59375 -22.265625 C 3.125 -22.359375 2.625 -22.492188 2.09375 -22.671875 C 1.5625 -22.847656 1.097656 -23.050781 0.703125 -23.28125 L 0.703125 -24.625 Z M 19.203125 -24.625 "/></g></g></g><g fill="#000000" fill-opacity="1"><g transform="translate(186.206291, 272.186056)"><g><path d="M 31.96875 0 L 21.453125 0 L 21.453125 -1.34375 C 21.921875 -1.570312 22.378906 -1.769531 22.828125 -1.9375 C 23.273438 -2.101562 23.753906 -2.242188 24.265625 -2.359375 L 24.265625 -17.0625 L 24.4375 -21.171875 L 24.15625 -21.171875 L 23 -17.40625 L 16.21875 0 L 14.59375 0 L 7.84375 -17.265625 L 6.578125 -21.390625 L 6.265625 -21.390625 L 6.296875 -16.921875 L 6.296875 -2.5 C 6.742188 -2.40625 7.234375 -2.25 7.765625 -2.03125 C 8.304688 -1.820312 8.8125 -1.59375 9.28125 -1.34375 L 9.28125 0 L 0.703125 0 L 0.703125 -1.34375 C 1.078125 -1.53125 1.539062 -1.75 2.09375 -2 C 2.644531 -2.257812 3.164062 -2.4375 3.65625 -2.53125 L 3.65625 -22.265625 C 3.1875 -22.359375 2.6875 -22.484375 2.15625 -22.640625 C 1.632812 -22.804688 1.175781 -23.019531 0.78125 -23.28125 L 0.78125 -24.625 L 10.3125 -24.625 L 15.6875 -10.3125 L 16.703125 -6.921875 L 16.734375 -6.921875 L 17.796875 -10.375 L 23.28125 -24.625 L 32 -24.625 L 32 -23.28125 C 31.601562 -23.050781 31.175781 -22.847656 30.71875 -22.671875 C 30.257812 -22.492188 29.796875 -22.359375 29.328125 -22.265625 L 29.328125 -2.328125 C 29.828125 -2.234375 30.300781 -2.09375 30.75 -1.90625 C 31.207031 -1.71875 31.613281 -1.53125 31.96875 -1.34375 Z M 31.96875 0 "/></g></g></g><g fill="#000000" fill-opacity="1"><g transform="translate(222.48886, 272.186056)"><g><path d="M 5.515625 -2.921875 C 5.773438 -2.660156 6.140625 -2.414062 6.609375 -2.1875 C 7.078125 -1.96875 7.695312 -1.859375 8.46875 -1.859375 C 9.757812 -1.859375 10.832031 -2.191406 11.6875 -2.859375 C 12.550781 -3.535156 12.984375 -4.46875 12.984375 -5.65625 C 12.984375 -6.53125 12.707031 -7.257812 12.15625 -7.84375 C 11.601562 -8.425781 10.90625 -8.960938 10.0625 -9.453125 C 9.21875 -9.953125 8.3125 -10.441406 7.34375 -10.921875 C 6.382812 -11.398438 5.484375 -11.96875 4.640625 -12.625 C 3.796875 -13.28125 3.097656 -14.054688 2.546875 -14.953125 C 1.992188 -15.859375 1.71875 -16.984375 1.71875 -18.328125 C 1.71875 -19.472656 1.925781 -20.46875 2.34375 -21.3125 C 2.769531 -22.15625 3.351562 -22.851562 4.09375 -23.40625 C 4.832031 -23.957031 5.707031 -24.367188 6.71875 -24.640625 C 7.726562 -24.910156 8.816406 -25.046875 9.984375 -25.046875 C 11.421875 -25.046875 12.753906 -24.941406 13.984375 -24.734375 C 15.210938 -24.535156 16.316406 -24.226562 17.296875 -23.8125 C 17.273438 -23.34375 17.234375 -22.800781 17.171875 -22.1875 C 17.117188 -21.582031 17.046875 -20.976562 16.953125 -20.375 C 16.859375 -19.78125 16.757812 -19.21875 16.65625 -18.6875 C 16.550781 -18.164062 16.453125 -17.726562 16.359375 -17.375 L 14.90625 -17.375 L 13.296875 -22.1875 C 13.015625 -22.332031 12.597656 -22.460938 12.046875 -22.578125 C 11.492188 -22.691406 10.925781 -22.75 10.34375 -22.75 C 9.351562 -22.75 8.519531 -22.488281 7.84375 -21.96875 C 7.164062 -21.457031 6.828125 -20.710938 6.828125 -19.734375 C 6.828125 -18.835938 7.109375 -18.078125 7.671875 -17.453125 C 8.234375 -16.835938 8.9375 -16.269531 9.78125 -15.75 C 10.625 -15.238281 11.539062 -14.726562 12.53125 -14.21875 C 13.53125 -13.71875 14.453125 -13.140625 15.296875 -12.484375 C 16.140625 -11.828125 16.84375 -11.054688 17.40625 -10.171875 C 17.96875 -9.296875 18.25 -8.210938 18.25 -6.921875 C 18.25 -4.578125 17.457031 -2.765625 15.875 -1.484375 C 14.289062 -0.210938 11.96875 0.421875 8.90625 0.421875 C 8.144531 0.421875 7.382812 0.375 6.625 0.28125 C 5.863281 0.1875 5.144531 0.0546875 4.46875 -0.109375 C 3.789062 -0.273438 3.1875 -0.453125 2.65625 -0.640625 C 2.125 -0.828125 1.734375 -1.023438 1.484375 -1.234375 C 1.503906 -1.773438 1.5625 -2.351562 1.65625 -2.96875 C 1.75 -3.59375 1.847656 -4.210938 1.953125 -4.828125 C 2.054688 -5.453125 2.164062 -6.046875 2.28125 -6.609375 C 2.40625 -7.171875 2.523438 -7.664062 2.640625 -8.09375 L 4.078125 -8.09375 Z M 5.515625 -2.921875 "/></g></g></g></svg>